<svg width="26" height="29" viewBox="0 0 26 29" fill="none" xmlns="http://www.w3.org/2000/svg">
<path d="M25.993 9.884C25.98 9.769 25.946 9.656 25.894 9.552L23.27 4.304L23.174 4.128C22.803 3.494 22.21 3.016 21.507 2.789L14.143 0.416002L14.022 0.367002C13.362 0.128002 12.638 0.128002 11.978 0.367002L11.856 0.416002L4.493 2.789L4.304 2.858C3.622 3.13 3.06 3.643 2.73 4.304L0.106 9.552L0.0600004 9.658C0.0200005 9.767 0 9.884 0 10V27L0.00500011 27.149C0.0819998 28.184 0.946 29 2 29H24L24.149 28.994C25.184 28.917 26 28.054 26 27V10L25.993 9.884ZM24 27H2V17H24V27ZM24 15H2V10.235L4.519 5.199L4.586 5.082C4.711 4.899 4.893 4.763 5.106 4.694L12.495 2.313L12.707 2.233C12.936 2.162 13.185 2.175 13.406 2.274L13.505 2.313L20.894 4.694L21.018 4.742C21.217 4.838 21.381 4.998 21.481 5.199L24 10.237V15Z" fill="#3C3C3C"/>
<path d="M16 5.999H10L9.883 6.006C9.386 6.063 9 6.486 9 6.999V11.999L9.007 12.116C9.065 12.613 9.487 12.999 10 12.999H16L16.117 12.992C16.614 12.934 17 12.512 17 11.999V6.999L16.993 6.882C16.935 6.385 16.513 5.999 16 5.999ZM15 10.999H11V7.999H15V10.999Z" fill="#3C3C3C"/>
<path d="M7 16.125V27" stroke="#3C3C3C" stroke-width="2"/>
<path d="M19.004 27.996H18.269H6.99805V16.016H19.004V26.63V27.996Z" stroke="#3C3C3C" stroke-width="1.998" stroke-linecap="round" stroke-linejoin="round"/>
<path d="M6.99805 16.017L19.004 27.997" stroke="#3C3C3C" stroke-width="1.998" stroke-miterlimit="10"/>
<path d="M19.004 16.017L6.99805 27.997" stroke="#3C3C3C" stroke-width="1.998" stroke-miterlimit="10"/>
</svg>
